<?xml version="1.0" standalone="no"?>
<!DOCTYPE svg PUBLIC "-//W3C//DTD SVG 20010904//EN"
 "http://www.w3.org/TR/2001/REC-SVG-20010904/DTD/svg10.dtd">
<svg version="1.0" xmlns="http://www.w3.org/2000/svg"
 width="350.000000pt" height="350.000000pt" viewBox="0 0 350.000000 350.000000"
 preserveAspectRatio="xMidYMid meet">
<metadata>
Created by potrace 1.14, written by Peter Selinger 2001-2017
</metadata>
<g transform="translate(0.000000,350.000000) scale(0.100000,-0.100000)"
fill="#000000" stroke="none">
<path d="M1937 3180 c-35 -11 -108 -67 -210 -164 -123 -116 -188 -143 -297
-122 -115 21 -177 13 -227 -32 -122 -112 -136 -121 -198 -141 -49 -16 -108
-23 -233 -30 -93 -4 -177 -13 -188 -19 -10 -5 -23 -10 -27 -10 -18 0 -94 -73
-112 -106 -11 -20 -23 -36 -27 -36 -5 0 -8 -6 -8 -13 0 -7 -16 -36 -35 -66
-19 -29 -35 -55 -35 -59 0 -10 -102 -123 -190 -212 -57 -57 -96 -106 -117
-149 -31 -61 -33 -69 -33 -175 0 -100 3 -120 36 -216 19 -58 39 -114 44 -125
5 -11 14 -38 20 -60 6 -22 15 -49 20 -60 4 -11 18 -47 31 -80 12 -33 26 -64
31 -69 4 -6 8 -20 8 -32 0 -13 4 -26 10 -29 5 -3 10 -15 10 -26 0 -10 5 -19
10 -19 6 0 10 -8 10 -18 0 -26 44 -109 75 -142 17 -18 24 -33 19 -46 -4 -13
-3 -15 4 -6 7 10 15 8 39 -12 17 -14 36 -26 41 -26 6 0 15 -6 19 -13 11 -17
117 -67 142 -67 11 0 22 -4 25 -8 3 -5 42 -14 88 -21 81 -11 128 -7 278 25 14
3 59 -6 105 -22 68 -23 101 -28 216 -32 145 -4 212 5 281 38 51 24 90 25 167
4 64 -18 65 -20 87 -134 15 -79 117 -216 179 -240 11 -4 115 -13 230 -20 204
-11 345 -35 384 -64 8 -7 88 -12 191 -14 161 -4 181 -2 221 16 71 33 149 127
149 181 0 11 4 22 9 25 4 3 11 33 14 66 5 43 16 75 39 113 18 29 44 74 58 100
13 26 30 47 36 47 7 0 10 8 7 18 -2 10 5 26 16 36 12 11 21 23 21 28 0 5 18
32 39 61 81 108 91 137 91 266 0 115 -1 118 -36 186 -20 39 -48 92 -62 118
l-24 48 12 147 c18 212 19 207 -53 345 -79 151 -93 198 -117 407 -23 190 -98
319 -222 380 -56 28 -216 38 -303 20 -85 -19 -185 -24 -185 -11 0 6 -7 11 -17
11 -24 0 -78 43 -160 126 -39 39 -95 88 -124 108 -53 35 -56 36 -149 35 -52 0
-108 -5 -123 -9z"/>
<path d="M2545 2940 c-3 -5 -1 -10 4 -10 6 0 11 5 11 10 0 6 -2 10 -4 10 -3 0
-8 -4 -11 -10z"/>
</g>
</svg>
